<?xml version="1.0" encoding="utf-8"?>
<!-- Generator: Adobe Illustrator 16.0.0, SVG Export Plug-In . SVG Version: 6.00 Build 0)  -->
<!DOCTYPE svg PUBLIC "-//W3C//DTD SVG 1.1//EN" "http://www.w3.org/Graphics/SVG/1.1/DTD/svg11.dtd">
<svg version="1.1"
	 id="resume_x5F_curriculum_x5F_vitae_x5F_erv_x5F_2022_x5F_02_x5F_22_x5F_lfo_x5F_part_x5F_bottom_x5F_left_x5F_brown_x5F_final_x5F_41858272"
	 xmlns="http://www.w3.org/2000/svg" xmlns:xlink="http://www.w3.org/1999/xlink" x="0px" y="0px" width="350px" height="175px"
	 viewBox="0 0 350 175" enable-background="new 0 0 350 175" xml:space="preserve">
<rect id="_x5B_Background_x5D___x5B_This_Resume_Is_Created_By_Esch_x2C__Ruben_Van_Susanto_x5D_" fill="#24201D" width="350" height="125"/>
<circle id="_x5B_Background_x5D___x5B_Bottom_x5D___x5B_Part_x5D___x5B_This_Resume_Is_Created_By_Esch_x2C__Ruben_Van_Susanto_x5D__1_" fill="#BBAC91" cx="325" cy="150" r="25"/>
<polygon id="_x5B_Background_x5D___x5B_Bottom_x5D___x5B_Part_x5D___x5B_This_Resume_Is_Created_By_Esch_x2C__Ruben_Van_Susanto_x5D_" fill="#BBAC91" points="
	325,150 325,175.182 0,175.182 0,125 350,125 350,150 "/>
<g id="_x5B_E_x5D___x5B_This_Resume_Is_Created_By_Esch_x2C__Ruben_Van_Susanto_x5D_" display="none">
	
		<text id="_x5B_E_x5D___x5B_This_Resume_Is_Created_By_Esch_x2C__Ruben_Van_Susanto_x5D__1_" transform="matrix(0.9869 0 0 1 260.6289 125)" display="inline" fill="#FFCE34" font-family="'Arial-BoldMT'" font-size="146.1982">E</text>
</g>
<g id="_x5B_A_x5D___x5B_This_Resume_Is_Created_By_Esch_x2C__Ruben_Van_Susanto_x5D_" display="none">
	
		<text id="_x5B_A_x5D___x5B_This_Resume_Is_Created_By_Esch_x2C__Ruben_Van_Susanto_x5D__1_" transform="matrix(0.9869 0 0 1 167.5405 125.0078)" display="inline" fill="#FFCE34" font-family="'Arial-BoldMT'" font-size="146.1982">A</text>
</g>
<g id="_x5B_T_x5D___x5B_This_Resume_Is_Created_By_Esch_x2C__Ruben_Van_Susanto_x5D_" display="none">
	
		<text id="_x5B_T_x5D___x5B_This_Resume_Is_Created_By_Esch_x2C__Ruben_Van_Susanto_x5D__1_" transform="matrix(0.9869 0 0 1 112.9858 125.0078)" display="inline" fill="#FFCE34" font-family="'Arial-BoldMT'" font-size="146.1982">T</text>
</g>
<g id="_x5B_I_x5D___x5B_This_Resume_Is_Created_By_Esch_x2C__Ruben_Van_Susanto_x5D_" display="none">
	
		<text id="_x5B_I_x5D___x5B_This_Resume_Is_Created_By_Esch_x2C__Ruben_Van_Susanto_x5D__1_" transform="matrix(0.9869 0 0 1 85.5737 125.0195)" display="inline" fill="#FFCE34" font-family="'Arial-BoldMT'" font-size="146.1982">I</text>
</g>
<g id="_x5B_V_x5D___x5B_This_Resume_Is_Created_By_Esch_x2C__Ruben_Van_Susanto_x5D_" display="none">
	
		<text id="_x5B_V_x5D___x5B_This_Resume_Is_Created_By_Esch_x2C__Ruben_Van_Susanto_x5D__1_" transform="matrix(0.9869 0 0 1 -0.0039 125.0195)" display="inline" fill="#FFCE34" font-family="'Arial-BoldMT'" font-size="146.1982">V</text>
</g>
<path id="_x5B_E_x5D___x5B_Outline_x5D___x5B_This_Resume_Is_Created_By_Esch_x2C__Ruben_Van_Susanto_x5D_" fill="#BBAC91" d="
	M271.128,125V20.349h76.578v17.703H291.98v23.201h51.853v17.632H291.98v28.483h57.696V125H271.128z"/>
<path id="_x5B_A_x5D___x5B_Outline_x5D___x5B_This_Resume_Is_Created_By_Esch_x2C__Ruben_Van_Susanto_x5D_" fill="#BBAC91" d="
	M271.177,125.008h-22.685l-9.02-23.771h-41.285l-8.521,23.771h-22.122l40.228-104.651h22.057L271.177,125.008z M232.782,83.604
	L218.551,44.77l-13.949,38.834H232.782z"/>
<path id="_x5B_T_x5D___x5B_Outline_x5D___x5B_This_Resume_Is_Created_By_Esch_x2C__Ruben_Van_Susanto_x5D_" fill="#BBAC91" d="
	M146.736,125.008V38.06H116.09V20.356h82.075V38.06h-30.576v86.948H146.736z"/>
<path id="_x5B_I_x5D___x5B_Outline_x5D___x5B_This_Resume_Is_Created_By_Esch_x2C__Ruben_Van_Susanto_x5D_" fill="#BBAC91" d="
	M95.441,125.02V20.368h20.854V125.02H95.441z"/>
<path id="_x5B_V_x5D___x5B_Outline_x5D___x5B_This_Resume_Is_Created_By_Esch_x2C__Ruben_Van_Susanto_x5D_" fill="#BBAC91" d="
	M36.845,125.02L-0.071,20.368h22.615L48.681,97.82l25.292-77.452h22.122L59.107,125.02H36.845z"/>
</svg>
