<?xml version="1.0" encoding="utf-8"?>
<!-- Generator: Adobe Illustrator 16.0.0, SVG Export Plug-In . SVG Version: 6.00 Build 0)  -->
<!DOCTYPE svg PUBLIC "-//W3C//DTD SVG 1.1//EN" "http://www.w3.org/Graphics/SVG/1.1/DTD/svg11.dtd">
<svg version="1.1"
	 id="resume_x5F_curriculum_x5F_vitae_x5F_erv_x5F_2022_x5F_02_x5F_22_x5F_lfo_x5F_part_x5F_bottom_x5F_right_x5F_brown_x5F_final_x5F_41858272"
	 xmlns="http://www.w3.org/2000/svg" xmlns:xlink="http://www.w3.org/1999/xlink" x="0px" y="0px" width="575px" height="175px"
	 viewBox="0 0 575 175" enable-background="new 0 0 575 175" xml:space="preserve">
<rect id="_x5B_Background_x5D___x5B_This_Resume_Is_Created_By_Esch_x2C__Ruben_Van_Susanto_x5D_" fill="#24201D" width="575" height="125"/>
<polygon id="_x5B_Background_x5D___x5B_Bottom_x5D___x5B_Part_x5D___x5B_This_Resume_Is_Created_By_Esch_x2C__Ruben_Van_Susanto_x5D__1_" fill="#BBAC91" points="
	550,150 550,175 0,175 0,125 575,125 575,149.818 "/>
<path id="_x5B_Background_x5D___x5B_Bottom_x5D___x5B_Part_x5D___x5B_This_Resume_Is_Created_By_Esch_x2C__Ruben_Van_Susanto_x5D_" fill="#BBAC91" d="
	M575,149.818c0,13.808-11.193,25-25,25c-13.808,0-25-11.192-25-25C525,136.012,575,136.014,575,149.818z"/>
<g id="_x5B_M_x5D___x5B_This_Resume_Is_Created_By_Esch_x2C__Ruben_Van_Susanto_x5D_" display="none">
	
		<text id="_x5B_M_x5D___x5B_This_Resume_Is_Created_By_Esch_x2C__Ruben_Van_Susanto_x5D__1_" transform="matrix(0.9869 0 0 1 496.2168 125.0098)" display="inline" fill="#666766" font-family="'Arial-BoldMT'" font-size="104.6886">M</text>
</g>
<g id="_x5B_U_x5D___x5B_This_Resume_Is_Created_By_Esch_x2C__Ruben_Van_Susanto_x5D__2_" display="none">
	
		<text id="_x5B_U_x5D___x5B_This_Resume_Is_Created_By_Esch_x2C__Ruben_Van_Susanto_x5D__5_" transform="matrix(0.9869 0 0 1 437.1201 124.9238)" display="inline" fill="#666766" font-family="'Arial-BoldMT'" font-size="104.6886">U</text>
</g>
<g id="_x5B_L_x5D___x5B_This_Resume_Is_Created_By_Esch_x2C__Ruben_Van_Susanto_x5D_" display="none">
	
		<text id="_x5B_L_x5D___x5B_This_Resume_Is_Created_By_Esch_x2C__Ruben_Van_Susanto_x5D__1_" transform="matrix(0.9869 0 0 1 384.5303 124.79)" display="inline" fill="#666766" font-family="'Arial-BoldMT'" font-size="105.4086">L</text>
</g>
<g id="_x5B_U_x5D___x5B_This_Resume_Is_Created_By_Esch_x2C__Ruben_Van_Susanto_x5D__1_" display="none">
	
		<text id="_x5B_U_x5D___x5B_This_Resume_Is_Created_By_Esch_x2C__Ruben_Van_Susanto_x5D__4_" transform="matrix(0.9869 0 0 1 326.0586 124.9473)" display="inline" fill="#666766" font-family="'Arial-BoldMT'" font-size="104.6886">U</text>
</g>
<g id="_x5B_C_x5D___x5B_This_Resume_Is_Created_By_Esch_x2C__Ruben_Van_Susanto_x5D__1_" display="none">
	
		<text id="_x5B_C_x5D___x5B_This_Resume_Is_Created_By_Esch_x2C__Ruben_Van_Susanto_x5D__3_" transform="matrix(0.9869 0 0 1 259.3306 124.9395)" display="inline" fill="#666766" font-family="'Arial-BoldMT'" font-size="104.6886">C</text>
</g>
<g id="_x5B_I_x5D___x5B_This_Resume_Is_Created_By_Esch_x2C__Ruben_Van_Susanto_x5D_" display="none">
	
		<text id="_x5B_I_x5D___x5B_This_Resume_Is_Created_By_Esch_x2C__Ruben_Van_Susanto_x5D__1_" transform="matrix(0.9869 0 0 1 244.6489 124.9395)" display="inline" fill="#666766" font-family="'Arial-BoldMT'" font-size="104.6886">I</text>
</g>
<g id="_x5B_R_x5D___x5B_This_Resume_Is_Created_By_Esch_x2C__Ruben_Van_Susanto_x5D__1_" display="none">
	
		<text id="_x5B_R_x5D___x5B_This_Resume_Is_Created_By_Esch_x2C__Ruben_Van_Susanto_x5D__3_" transform="matrix(0.9869 0 0 1 173.8901 125.7656)" display="inline" fill="#666766" font-family="'Arial-BoldMT'" font-size="104.6886">R</text>
</g>
<g id="_x5B_R_x5D___x5B_This_Resume_Is_Created_By_Esch_x2C__Ruben_Van_Susanto_x5D_" display="none">
	
		<text id="_x5B_R_x5D___x5B_This_Resume_Is_Created_By_Esch_x2C__Ruben_Van_Susanto_x5D__2_" transform="matrix(0.9869 0 0 1 115.3457 124.9395)" display="inline" fill="#666766" font-family="'Arial-BoldMT'" font-size="104.6886">R</text>
</g>
<g id="_x5B_U_x5D___x5B_This_Resume_Is_Created_By_Esch_x2C__Ruben_Van_Susanto_x5D_" display="none">
	
		<text id="_x5B_U_x5D___x5B_This_Resume_Is_Created_By_Esch_x2C__Ruben_Van_Susanto_x5D__3_" transform="matrix(0.9869 0 0 1 56.7246 124.9473)" display="inline" fill="#666766" font-family="'Arial-BoldMT'" font-size="104.6886">U</text>
</g>
<g id="_x5B_C_x5D___x5B_This_Resume_Is_Created_By_Esch_x2C__Ruben_Van_Susanto_x5D_" display="none">
	
		<text id="_x5B_C_x5D___x5B_This_Resume_Is_Created_By_Esch_x2C__Ruben_Van_Susanto_x5D__2_" transform="matrix(0.9869 0 0 1 -4.5547 124.9473)" display="inline" fill="#666766" font-family="'Arial-BoldMT'" font-size="104.6886">C</text>
</g>
<path id="_x5B_M_x5D___x5B_Outline_x5D___x5B_This_Resume_Is_Created_By_Esch_x2C__Ruben_Van_Susanto_x5D_" fill="#BBAC91" d="
	M503.532,125.01V50.071h22.35l13.419,51.119l13.271-51.119h22.396v74.938h-13.873V66.021l-14.681,58.989h-14.378l-14.63-58.989
	v58.989H503.532z"/>
<path id="_x5B_U_x5D___x5B_Outline_x5D___x5B_This_Resume_Is_Created_By_Esch_x2C__Ruben_Van_Susanto_x5D__2_" fill="#BBAC91" d="
	M444.537,49.985h14.934v40.588c0,6.44,0.187,10.614,0.557,12.521c0.64,3.067,2.158,5.529,4.563,7.389
	c2.403,1.855,5.691,2.785,9.861,2.785c4.238,0,7.434-0.877,9.585-2.634c2.152-1.755,3.447-3.909,3.886-6.467
	s0.655-6.799,0.655-12.729V49.985h14.934v39.36c0,8.997-0.402,15.354-1.211,19.067c-0.809,3.715-2.296,6.85-4.465,9.404
	c-2.169,2.556-5.07,4.594-8.702,6.106c-3.632,1.519-8.374,2.275-14.228,2.275c-7.063,0-12.419-0.827-16.066-2.479
	c-3.647-1.65-6.533-3.8-8.65-6.438c-2.118-2.641-3.517-5.41-4.188-8.307c-0.977-4.295-1.463-10.636-1.463-19.02v-39.97H444.537z"/>
<path id="_x5B_L_x5D___x5B_Outline_x5D___x5B_This_Resume_Is_Created_By_Esch_x2C__Ruben_Van_Susanto_x5D_" fill="#BBAC91" d="
	M392.508,124.79V49.954h15.035v62.123h37.386v12.713H392.508z"/>
<path id="_x5B_U_x5D___x5B_Outline_x5D___x5B_This_Resume_Is_Created_By_Esch_x2C__Ruben_Van_Susanto_x5D__1_" fill="#BBAC91" d="
	M333.478,50.009h14.935v40.589c0,6.439,0.186,10.614,0.556,12.522c0.641,3.067,2.16,5.528,4.564,7.387
	c2.402,1.857,5.69,2.785,9.86,2.785c4.238,0,7.435-0.877,9.585-2.632c2.152-1.755,3.447-3.911,3.887-6.467
	c0.438-2.559,0.654-6.799,0.654-12.729V50.009h14.935v39.36c0,8.997-0.403,15.354-1.211,19.066c-0.81,3.715-2.296,6.851-4.465,9.403
	c-2.169,2.558-5.07,4.595-8.702,6.108c-3.632,1.517-8.374,2.273-14.229,2.273c-7.063,0-12.419-0.828-16.065-2.479
	c-3.648-1.652-6.533-3.801-8.65-6.439c-2.119-2.642-3.517-5.41-4.188-8.308c-0.978-4.294-1.464-10.634-1.464-19.019L333.478,50.009
	L333.478,50.009z"/>
<path id="_x5B_C_x5D___x5B_Outline_x5D___x5B_This_Resume_Is_Created_By_Esch_x2C__Ruben_Van_Susanto_x5D__1_" fill="#BBAC91" d="
	M314.169,97.387l14.479,4.652c-2.222,8.179-5.911,14.254-11.073,18.223c-5.163,3.971-11.714,5.956-19.648,5.956
	c-9.819,0-17.893-3.399-24.215-10.198c-6.323-6.799-9.484-16.094-9.484-27.885c0-12.473,3.178-22.159,9.534-29.061
	c6.356-6.9,14.712-10.351,25.073-10.351c9.047,0,16.396,2.709,22.045,8.127c3.362,3.204,5.886,7.805,7.566,13.802l-14.781,3.578
	c-0.875-3.885-2.697-6.951-5.474-9.201c-2.773-2.249-6.146-3.373-10.113-3.373c-5.48,0-9.932,1.993-13.345,5.979
	c-3.414,3.987-5.12,10.445-5.12,19.374c0,9.476,1.682,16.224,5.046,20.242c3.36,4.021,7.733,6.031,13.114,6.031
	c3.97,0,7.383-1.277,10.24-3.833C310.871,106.895,312.924,102.874,314.169,97.387z"/>
<path id="_x5B_I_x5D___x5B_Outline_x5D___x5B_This_Resume_Is_Created_By_Esch_x2C__Ruben_Van_Susanto_x5D_" fill="#BBAC91" d="
	M251.713,124.939V50.001h14.933v74.938H251.713z"/>
<path id="_x5B_R_x5D___x5B_Outline_x5D___x5B_This_Resume_Is_Created_By_Esch_x2C__Ruben_Van_Susanto_x5D__1_" fill="#BBAC91" d="
	M181.459,125.766V50.827h31.429c7.903,0,13.646,0.674,17.229,2.02c3.58,1.347,6.447,3.74,8.601,7.182
	c2.152,3.442,3.229,7.379,3.229,11.809c0,5.623-1.631,10.267-4.893,13.93c-3.263,3.664-8.14,5.973-14.63,6.925
	c3.229,1.91,5.894,4.006,7.995,6.289s4.936,6.338,8.501,12.166l9.03,14.619h-17.858l-10.796-16.31
	c-3.834-5.827-6.458-9.499-7.87-11.019c-1.412-1.516-2.909-2.555-4.49-3.115s-4.086-0.846-7.517-0.846h-3.026v31.283h-14.934
	V125.766L181.459,125.766z M196.392,82.521h11.048c7.163,0,11.637-0.307,13.419-0.92c1.782-0.614,3.18-1.67,4.188-3.17
	c1.009-1.499,1.514-3.374,1.514-5.623c0-2.521-0.665-4.558-1.993-6.108c-1.328-1.55-3.202-2.53-5.625-2.939
	c-1.211-0.17-4.843-0.255-10.896-0.255h-11.653v19.015H196.392z"/>
<path id="_x5B_R_x5D___x5B_Outline_x5D___x5B_This_Resume_Is_Created_By_Esch_x2C__Ruben_Van_Susanto_x5D_" fill="#BBAC91" d="
	M122.915,124.939V50.001h31.429c7.903,0,13.646,0.674,17.229,2.02c3.581,1.347,6.448,3.74,8.602,7.182
	c2.152,3.442,3.229,7.379,3.229,11.809c0,5.623-1.631,10.267-4.893,13.93c-3.263,3.664-8.14,5.973-14.63,6.926
	c3.229,1.909,5.894,4.005,7.995,6.288s4.936,6.338,8.501,12.166l9.029,14.619h-17.857l-10.796-16.31
	c-3.834-5.825-6.458-9.499-7.87-11.016c-1.412-1.519-2.909-2.558-4.49-3.118s-4.086-0.844-7.517-0.844h-3.026v31.281h-14.934
	L122.915,124.939L122.915,124.939z M137.848,81.694h11.048c7.163,0,11.637-0.307,13.419-0.92c1.782-0.614,3.18-1.67,4.188-3.17
	c1.009-1.499,1.514-3.374,1.514-5.623c0-2.521-0.665-4.558-1.993-6.108c-1.329-1.55-3.203-2.53-5.625-2.939
	c-1.211-0.17-4.843-0.255-10.896-0.255H137.85v19.015H137.848z"/>
<path id="_x5B_U_x5D___x5B_Outline_x5D___x5B_This_Resume_Is_Created_By_Esch_x2C__Ruben_Van_Susanto_x5D_" fill="#BBAC91" d="
	M64.143,50.009h14.934v40.589c0,6.439,0.184,10.614,0.555,12.522c0.639,3.067,2.161,5.528,4.564,7.387
	c2.404,1.857,5.692,2.785,9.863,2.785c4.237,0,7.433-0.877,9.585-2.632s3.447-3.911,3.884-6.467
	c0.438-2.559,0.656-6.799,0.656-12.729V50.009h14.934v39.36c0,8.997-0.404,15.354-1.212,19.066
	c-0.808,3.715-2.296,6.851-4.465,9.403c-2.169,2.558-5.069,4.595-8.702,6.108c-3.632,1.517-8.375,2.273-14.226,2.273
	c-7.063,0-12.419-0.828-16.068-2.479c-3.648-1.652-6.532-3.801-8.651-6.439c-2.119-2.641-3.516-5.41-4.188-8.308
	c-0.976-4.294-1.463-10.634-1.463-19.019V50.009z"/>
<path id="_x5B_C_x5D___x5B_Outline_x5D___x5B_This_Resume_Is_Created_By_Esch_x2C__Ruben_Van_Susanto_x5D_" fill="#BBAC91" d="
	M50.284,97.395l14.479,4.652c-2.22,8.18-5.911,14.254-11.073,18.223c-5.163,3.974-11.713,5.957-19.648,5.957
	c-9.821,0-17.894-3.397-24.215-10.199c-6.323-6.799-9.484-16.094-9.484-27.885c0-12.473,3.178-22.159,9.535-29.061
	c6.355-6.9,14.713-10.351,25.072-10.351c9.047,0,16.396,2.709,22.046,8.127c3.362,3.204,5.885,7.805,7.566,13.802L49.78,74.238
	c-0.875-3.885-2.698-6.951-5.474-9.201c-2.775-2.249-6.146-3.373-10.115-3.373c-5.481,0-9.931,1.993-13.344,5.98
	c-3.414,3.987-5.12,10.445-5.12,19.374c0,9.474,1.682,16.222,5.044,20.242c3.363,4.021,7.735,6.031,13.117,6.031
	c3.968,0,7.382-1.277,10.241-3.833S49.04,102.882,50.284,97.395z"/>
</svg>
